<svg xmlns="http://www.w3.org/2000/svg" viewBox="0 0 392.46 58.07"><defs><style>.cls-1{font-size:6.07px;font-family:Prometo-XBoldItalic, Prometo;font-style:italic;letter-spacing:-0.01em;}.cls-1,.cls-2{font-weight:700;}.cls-2{font-size:24.35px;font-family:Industry-Bold, Industry;letter-spacing:-0.01em;}.cls-3{letter-spacing:-0.01em;}.cls-4{letter-spacing:-0.02em;}.cls-5{letter-spacing:-0.01em;}.cls-6{letter-spacing:-0.02em;}</style></defs><title>RCS-Logo</title><g id="Layer_2" data-name="Layer 2"><g id="Layer_1-2" data-name="Layer 1"><polygon points="27.52 39.75 27.48 39.75 27.51 39.62 27.52 39.75"/><text class="cls-1" transform="translate(383.23 10.58)">TM</text><path d="M20.35,58.07,0,38.28V0H40.71V38.28ZM5.5,36,20.35,50.41,35.21,36V5.5H5.5Z"/><path d="M29.63,32.48H24.21L20.81,25.8h-2.2v6.67H13.26v-20H24.95c2.62,0,3.88,1.26,3.88,3.88v5.19c0,2.2-.88,3.42-2.71,3.79ZM23,21.58c.4,0,.51-.11.51-.51V17.36c0-.4-.11-.51-.51-.51H18.62v4.73Z"/><text class="cls-2" transform="translate(53.32 35.87)">RAPID <tspan class="cls-3" x="74.8" y="0">COMPUTER SE</tspan><tspan class="cls-4" x="235.77" y="0">R</tspan><tspan class="cls-5" x="251.03" y="0">VIC</tspan><tspan class="cls-6" x="288.43" y="0">E</tspan><tspan class="cls-5" x="302.58" y="0">S</tspan></text></g></g></svg>