<svg xmlns="http://www.w3.org/2000/svg" viewBox="0 0 65 65"><defs><style>.cls-1{fill:none;stroke:#329af0;stroke-miterlimit:10;}.cls-2{fill:#329af0;}</style></defs><title>cabling-service</title><g id="Layer_2" data-name="Layer 2"><g id="Capa_1" data-name="Capa 1"><circle class="cls-1" cx="32.5" cy="32.5" r="32"/><path class="cls-2" d="M22.1,20.23a2.4,2.4,0,1,0,2.4,2.4A2.4,2.4,0,0,0,22.1,20.23Zm0,3.73a1.33,1.33,0,1,1,1.33-1.33A1.33,1.33,0,0,1,22.1,24Z"/><circle class="cls-2" cx="43.17" cy="21.83" r="0.53"/><circle class="cls-2" cx="41.03" cy="21.83" r="0.53"/><circle class="cls-2" cx="44.23" cy="23.43" r="0.53"/><circle class="cls-2" cx="42.1" cy="23.43" r="0.53"/><circle class="cls-2" cx="38.9" cy="21.83" r="0.53"/><circle class="cls-2" cx="39.97" cy="23.43" r="0.53"/><circle class="cls-2" cx="36.77" cy="21.83" r="0.53"/><circle class="cls-2" cx="37.83" cy="23.43" r="0.53"/><circle class="cls-2" cx="34.63" cy="21.83" r="0.53"/><circle class="cls-2" cx="35.7" cy="23.43" r="0.53"/><path class="cls-2" d="M48.5,25.78V19.49A2.46,2.46,0,0,0,46,17H19a2.46,2.46,0,0,0-2.46,2.46v6.28a2.44,2.44,0,0,0,.95,1.92,2.44,2.44,0,0,0-.95,1.92v6.28A2.46,2.46,0,0,0,19,38.37H32v4.32a2.67,2.67,0,0,0-2.08,2.08H17a.53.53,0,0,0,0,1.07H29.89a2.67,2.67,0,0,0,5.23,0H48a.53.53,0,0,0,0-1.07H35.11A2.67,2.67,0,0,0,33,42.69V38.37H46a2.46,2.46,0,0,0,2.46-2.46V29.62a2.44,2.44,0,0,0-.95-1.92A2.44,2.44,0,0,0,48.5,25.78ZM34.1,45.3a1.6,1.6,0,1,1-1.6-1.6A1.6,1.6,0,0,1,34.1,45.3ZM47.43,29.62v6.28A1.39,1.39,0,0,1,46,37.3H19a1.39,1.39,0,0,1-1.39-1.39V29.62A1.39,1.39,0,0,1,19,28.23H46A1.39,1.39,0,0,1,47.43,29.62ZM19,27.17a1.39,1.39,0,0,1-1.39-1.39V19.49A1.39,1.39,0,0,1,19,18.1H46a1.39,1.39,0,0,1,1.39,1.39v6.28A1.39,1.39,0,0,1,46,27.17Z"/><path class="cls-2" d="M22.1,35.17a2.4,2.4,0,1,0-2.4-2.4A2.4,2.4,0,0,0,22.1,35.17Zm0-3.73a1.33,1.33,0,1,1-1.33,1.33A1.33,1.33,0,0,1,22.1,31.43Z"/><circle class="cls-2" cx="43.17" cy="31.97" r="0.53"/><circle class="cls-2" cx="41.03" cy="31.97" r="0.53"/><circle class="cls-2" cx="44.23" cy="33.57" r="0.53"/><circle class="cls-2" cx="42.1" cy="33.57" r="0.53"/><circle class="cls-2" cx="38.9" cy="31.97" r="0.53"/><circle class="cls-2" cx="39.97" cy="33.57" r="0.53"/><circle class="cls-2" cx="36.77" cy="31.97" r="0.53"/><circle class="cls-2" cx="37.83" cy="33.57" r="0.53"/><circle class="cls-2" cx="34.63" cy="31.97" r="0.53"/><circle class="cls-2" cx="35.7" cy="33.57" r="0.53"/></g></g></svg>