<svg xmlns="http://www.w3.org/2000/svg" viewBox="0 0 65 65"><defs><style>.cls-1{fill:none;stroke:#329af0;stroke-miterlimit:10;}.cls-2{fill:#329af0;}</style></defs><title>camera-service</title><g id="Layer_2" data-name="Layer 2"><g id="Capa_1" data-name="Capa 1"><circle class="cls-1" cx="32.5" cy="32.5" r="32"/><path class="cls-2" d="M46.85,33.57h-1a1.65,1.65,0,0,0-1.65,1.65V37.3H38.91V34c1.94-.63,3.17-3.22,3.17-6.81,0-3.86-1.42-6.57-3.62-6.92H17.06a.53.53,0,0,0-.52.43h0a3.27,3.27,0,0,0,.66,2.51A4,4,0,0,0,20,24.47a12.42,12.42,0,0,0-.29,2.7c0,3.88,1.64,6.93,3.73,6.93H34.65V41a1.62,1.62,0,0,0,1.62,1.62h1a1.61,1.61,0,0,0,1.51-1.07h5.43v1.55a1.65,1.65,0,0,0,1.65,1.65h1a1.65,1.65,0,0,0,1.65-1.65v-7.9A1.65,1.65,0,0,0,46.85,33.57ZM38.33,21.31c1.28.23,2.55,2,2.67,5.33H30.07l-2-2a.53.53,0,0,0-.38-.16H23.77l0,0-.18-.26-.11-.14L23.41,24l-.07-.08-.07-.08,0,0-.19-.19-.13-.12-.34-.3-.3-.24-.14-.11a17.62,17.62,0,0,0-2.58-1.56ZM24,26.46a4,4,0,0,1-.53,2.17,4,4,0,0,1-.53-2.17A5.13,5.13,0,0,1,23,25.37h0a.52.52,0,0,0,.16.13l0,0a.53.53,0,0,0,.21,0h.46A5.29,5.29,0,0,1,24,26.46Zm-6-3.94a2,2,0,0,1-.42-.94A24.59,24.59,0,0,1,20.46,23c-.05.13-.1.27-.15.4A3.13,3.13,0,0,1,18,22.52Zm2.76,4.65a10.54,10.54,0,0,1,.58-3.55l0,0a7.83,7.83,0,0,1,.84.69,5.62,5.62,0,0,0-.39,2.13c0,1.8.75,3.37,1.6,3.37s1.6-1.58,1.6-3.37a6.38,6.38,0,0,0-.07-.89h1a11.83,11.83,0,0,1,.11,1.6c0,3.3-1.43,5.86-2.66,5.86S20.79,30.63,20.79,27.17ZM25.41,33l0-.06q.15-.18.3-.4l0-.07c.11-.17.21-.35.31-.53l.08-.16c.07-.14.14-.29.2-.45l.08-.2c.06-.16.12-.33.18-.5l.06-.17q.1-.34.19-.71l0-.15q.06-.3.11-.6l0-.25q0-.28.06-.57c0-.08,0-.16,0-.24,0-.27,0-.54,0-.82v-1.6h.31l2,2a.53.53,0,0,0,.38.16H41c-.12,3.37-1.4,5.1-2.67,5.33H25.41Zm11.88,8.53h-1a.55.55,0,0,1-.55-.55V34.1h2.13V41A.55.55,0,0,1,37.29,41.56Zm1.62-1.07V38.36h5.33v2.13Zm8.53,2.62a.58.58,0,0,1-.58.58h-1a.58.58,0,0,1-.58-.58v-7.9a.58.58,0,0,1,.58-.58h1a.58.58,0,0,1,.58.58Z"/><circle class="cls-2" cx="33.58" cy="30.9" r="0.53"/><circle class="cls-2" cx="31.45" cy="30.9" r="0.53"/><circle class="cls-2" cx="29.32" cy="30.9" r="0.53"/></g></g></svg>