<svg xmlns="http://www.w3.org/2000/svg" viewBox="0 0 65 65"><defs><style>.cls-1{fill:none;stroke:#329af0;stroke-miterlimit:10;}.cls-2{fill:#329af0;}</style></defs><title>graphicdesign-service</title><g id="Layer_2" data-name="Layer 2"><g id="Capa_1" data-name="Capa 1"><circle class="cls-1" cx="32.5" cy="32.5" r="32"/><path class="cls-2" d="M43.91,34.72a4,4,0,0,0-3.14,1.77,4,4,0,0,0-3.14-1.77,4.1,4.1,0,0,0-4,3.89,3.9,3.9,0,0,0,.12,1.49,6.18,6.18,0,0,0,2,3.18l4.6,3.93a.65.65,0,0,0,.42.16.66.66,0,0,0,.42-.16l4.6-3.93a6.17,6.17,0,0,0,2-3.18,3.93,3.93,0,0,0,.12-1.49A4.1,4.1,0,0,0,43.91,34.72Zm2.82,5.12a5.06,5.06,0,0,1-1.65,2.61l-4.3,3.68-4.3-3.68a5.07,5.07,0,0,1-1.65-2.61,2.91,2.91,0,0,1-.11-1v-.06a3,3,0,0,1,2.91-2.91,3.13,3.13,0,0,1,2.63,2l.5,1.14.5-1.14a3.13,3.13,0,0,1,2.63-2,3,3,0,0,1,2.92,3A2.89,2.89,0,0,1,46.73,39.84Z"/><path class="cls-2" d="M28.4,25.11a3.07,3.07,0,1,0-3.07,3.07A3.08,3.08,0,0,0,28.4,25.11Zm-5,0a2,2,0,1,1,2,2A2,2,0,0,1,23.36,25.11Z"/><path class="cls-2" d="M19.95,37.85a.55.55,0,0,0,.78,0l9-7.92,4.59,4.59a.55.55,0,0,0,.78-.78l-1.56-1.56,5.06-5.55,6.21,5.7a.55.55,0,0,0,.75-.81l-6.62-6.07a.55.55,0,0,0-.78,0l-5.4,5.92-2.62-2.62a.55.55,0,0,0-.75,0L20,37.07A.55.55,0,0,0,19.95,37.85Z"/><path class="cls-2" d="M47.95,17.62H17.05a.55.55,0,0,0-.55.55V42.45a.55.55,0,0,0,.55.55h14.9a.55.55,0,1,0,0-1.1H17.6V18.72H47.4V34.17a.55.55,0,0,0,1.1,0v-16A.55.55,0,0,0,47.95,17.62Z"/></g></g></svg>