<svg xmlns="http://www.w3.org/2000/svg" viewBox="0 0 204.56 24"><defs><style>.cls-1{fill:#f2f2f2;}.cls-2{fill:#329af0;}</style></defs><title>novatech360-logo-new</title><g id="Layer_2" data-name="Layer 2"><g id="Capa_1" data-name="Capa 1"><path class="cls-1" d="M4.95,8V23.58H0V.35H5.09l10.76,15V.35H20.8V23.58H16Z"/><path class="cls-1" d="M24.21,15.15a8.52,8.52,0,0,1,8.88-8.81A8.53,8.53,0,0,1,42,15.15,8.54,8.54,0,0,1,33.09,24,8.53,8.53,0,0,1,24.21,15.15Zm13.2,0c0-2.61-1.57-4.88-4.32-4.88s-4.28,2.26-4.28,4.88,1.53,4.91,4.28,4.91S37.41,17.8,37.41,15.15Z"/><path class="cls-1" d="M42.89,6.76h4.74L52,18.46,56.4,6.76h4.77L54.41,23.58H49.64Z"/><path class="cls-1" d="M73.26,21.84A7,7,0,0,1,67.93,24a5.6,5.6,0,0,1-5.85-5.57c0-3.94,3.17-5.36,5.85-5.36a6.8,6.8,0,0,1,5.33,2.06V12.78c0-1.71-1.46-2.82-3.69-2.82a7.08,7.08,0,0,0-4.91,2L63,9a11,11,0,0,1,7.35-2.65c3.83,0,7.35,1.53,7.35,6.38V23.58H73.26Zm0-4.39A4.42,4.42,0,0,0,69.71,16c-1.74,0-3.17.91-3.17,2.54S68,21,69.71,21a4.43,4.43,0,0,0,3.55-1.46Z"/><path class="cls-1" d="M82.95,19.4V10.62H80.16V6.76h2.79V2.16h4.46v4.6h3.41v3.87H87.41v7.59c0,1,.56,1.85,1.53,1.85a2.42,2.42,0,0,0,1.53-.49l.94,3.34A5.46,5.46,0,0,1,87.72,24C84.62,24,82.95,22.4,82.95,19.4Z"/><path class="cls-1" d="M101.48,6.34c5,0,8.43,3.76,8.43,9.27v1H97.4a4.53,4.53,0,0,0,4.84,3.9,6.88,6.88,0,0,0,4.49-1.67l2,2.86A10.49,10.49,0,0,1,101.76,24c-5.12,0-9-3.45-9-8.85A8.56,8.56,0,0,1,101.48,6.34Zm-4.15,7.25h8.29a3.9,3.9,0,0,0-4.14-3.73A4,4,0,0,0,97.33,13.59Z"/><path class="cls-1" d="M121,6.34a7.83,7.83,0,0,1,6.65,3l-2.89,2.72a4.08,4.08,0,0,0-3.55-1.81c-2.68,0-4.56,2-4.56,4.88s1.88,4.91,4.56,4.91a4.25,4.25,0,0,0,3.55-1.81l2.89,2.68A7.75,7.75,0,0,1,121,24,8.54,8.54,0,0,1,112,15.15,8.53,8.53,0,0,1,121,6.34Z"/><path class="cls-1" d="M141.89,13.34c0-2.33-1.22-3.07-3.14-3.07a4.9,4.9,0,0,0-3.83,2V23.58H130.5V.35h4.42V9a7.79,7.79,0,0,1,5.92-2.61c3.69,0,5.47,2,5.47,5.3V23.58h-4.42Z"/><path class="cls-2" d="M151.23,18.36a8.07,8.07,0,0,0,6.48,3.06c3.38,0,5.43-1.67,5.43-4.35,0-2.89-2.37-4.11-5.78-4.11-1,0-2.06,0-2.4,0V10.35c.38,0,1.46,0,2.4,0,2.93,0,5.4-1.15,5.4-3.83s-2.37-4-5.19-4a7.87,7.87,0,0,0-6.13,2.82l-1.6-1.81A10.07,10.07,0,0,1,157.78,0c4.46,0,7.87,2.26,7.87,6.2,0,3.34-2.82,5-5,5.4A5.84,5.84,0,0,1,166,17.31c0,3.87-3.1,6.69-8.22,6.69a9.8,9.8,0,0,1-8.26-3.83Z"/><path class="cls-2" d="M177.39,0a8.08,8.08,0,0,1,6.44,2.79l-1.46,2.16a6,6,0,0,0-5-2.37c-4.49,0-6.55,4.56-6.55,9.13a7.86,7.86,0,0,0,0,.91A8.35,8.35,0,0,1,177.46,9c4.18,0,7.59,2.47,7.59,7.42,0,4-3.07,7.59-8.15,7.59-6.48,0-9-5.68-9-12S170.88,0,177.39,0Zm-.63,11.5A7.14,7.14,0,0,0,170.95,15c.28,2.89,1.81,6.44,5.85,6.44a5,5,0,0,0,5.33-4.91C182.13,13.1,179.76,11.5,176.76,11.5Z"/><path class="cls-2" d="M195.68,0c6.34,0,8.88,6.31,8.88,12S202,24,195.68,24s-8.88-6.37-8.88-12S189.3,0,195.68,0Zm0,2.58c-4.42,0-5.92,4.77-5.92,9.4s1.5,9.44,5.92,9.44,5.92-4.81,5.92-9.44S200.1,2.58,195.68,2.58Z"/></g></g></svg>
