<svg xmlns="http://www.w3.org/2000/svg" viewBox="0 0 65 65"><defs><style>.cls-1{fill:none;stroke:#329af0;stroke-miterlimit:10;}.cls-2{fill:#329af0;}</style></defs><title>webdev-service</title><g id="Layer_2" data-name="Layer 2"><g id="Capa_1" data-name="Capa 1"><circle class="cls-1" cx="32.5" cy="32.5" r="32"/><path class="cls-2" d="M49.06,47.48,45,43.42l3.87-1.94L38.33,37.6l3.88,10.54,1.94-3.87,4.06,4.06a.6.6,0,1,0,.84-.84Zm-8.71-7.86,5.52,2-2.32,1.16-1.16,2.32Z"/><path class="cls-2" d="M20.55,18.89a2.39,2.39,0,1,0,2.39,2.39A2.39,2.39,0,0,0,20.55,18.89Zm0,3.59a1.2,1.2,0,1,1,1.2-1.2A1.2,1.2,0,0,1,20.55,22.48Z"/><path class="cls-2" d="M25.93,18.89a2.39,2.39,0,1,0,2.39,2.39A2.39,2.39,0,0,0,25.93,18.89Zm0,3.59a1.2,1.2,0,1,1,1.2-1.2A1.2,1.2,0,0,1,25.93,22.48Z"/><path class="cls-2" d="M31.3,18.89a2.39,2.39,0,1,0,2.39,2.39A2.39,2.39,0,0,0,31.3,18.89Zm0,3.59a1.2,1.2,0,1,1,1.2-1.2A1.2,1.2,0,0,1,31.3,22.48Z"/><path class="cls-2" d="M36.68,45.78H17V26.06H45.65V36.82a.6.6,0,0,0,1.2,0V17.1a.6.6,0,0,0-.6-.6H16.37a.6.6,0,0,0-.6.6V46.38a.6.6,0,0,0,.6.6H36.68a.6.6,0,0,0,0-1.2ZM17,17.7H45.65v7.17H17Z"/></g></g></svg>